<svg xmlns="http://www.w3.org/2000/svg" viewBox="0 0 100 100" role="img" aria-label="Eagle avatar">
  <!-- Solid forest background -->
  <circle cx="50" cy="50" r="46" fill="#1A3A2A"/>
  
  <!-- Eagle Head & Beak Profile Outline (matching the exact swoop of the reference image) -->
  <path d="M 32 70 Q 36 28 62 28 C 72 28 78 28 78 32 C 72 34 74 36 76 40 C 78 44 76 52 70 54 M 70 54 L 62 48 M 62 48 C 56 48 54 58 54 70" stroke="#F5C842" stroke-width="4.5" stroke-linecap="round" stroke-linejoin="round" fill="none"/>
  
  <!-- Beak line separating mouth -->
  <path d="M 62 48 Q 72 50 70 54" stroke="#F5C842" stroke-width="4.5" stroke-linecap="round" stroke-linejoin="round" fill="none"/>
  
  <!-- Chest details / neck fluff -->
  <path d="M 44 42 C 40 48 42 62 46 70" stroke="#F5C842" stroke-width="4.5" stroke-linecap="round" fill="none"/>
  
  <!-- Eye -->
  <circle cx="56" cy="36" r="2.5" fill="#F5C842"/>
  <path d="M 50 33 Q 56 31 62 33" stroke="#F5C842" stroke-width="4" stroke-linecap="round" fill="none"/>
</svg>