<svg xmlns="http://www.w3.org/2000/svg" viewBox="0 0 100 100" role="img" aria-label="Rocket avatar">
  <!-- Solid forest background -->
  <circle cx="50" cy="50" r="46" fill="#1A3A2A"/>
  
  <!-- Rocket Body Outline -->
  <path d="M 40 70 C 44 60 48 50 58 40 C 64 34 72 28 72 28 C 72 28 66 36 60 42 C 50 52 40 56 30 60 Z" stroke="#F5C842" stroke-width="4.5" stroke-linejoin="round" stroke-linecap="round" fill="none"/>
  
  <!-- Engine burner connector line -->
  <path d="M 30 60 L 40 70" stroke="#F5C842" stroke-width="4.5" stroke-linecap="round"/>
  
  <!-- Fins -->
  <path d="M 30 60 L 20 62 L 26 52 Z" stroke="#F5C842" stroke-width="4" stroke-linejoin="round" fill="none"/>
  <path d="M 40 70 L 42 80 L 52 74 Z" stroke="#F5C842" stroke-width="4" stroke-linejoin="round" fill="none"/>
  
  <!-- Porthole window -->
  <circle cx="52" cy="48" r="4" stroke="#F5C842" stroke-width="4" fill="none"/>
  
  <!-- Exhaust Flames -->
  <path d="M 28 66 Q 22 72 16 70" stroke="#F5C842" stroke-width="3" stroke-linecap="round" fill="none"/>
  <path d="M 34 72 Q 28 80 26 84" stroke="#F5C842" stroke-width="3" stroke-linecap="round" fill="none"/>
</svg>